HIERARCHY
ROOT joint_Root
{
	OFFSET 0.0 0.0 0.0
	CHANNELS 6 Xposition Yposition Zposition Zrotation Xrotation Yrotation 
	JOINT Hips
	{
		OFFSET -17.1583 93.1646 452.98
		CHANNELS 6 Xposition Yposition Zposition Zrotation Xrotation Yrotation 
		JOINT Spine
		{
			OFFSET 15.7357 0.0 0.0
			CHANNELS 6 Xposition Yposition Zposition Zrotation Xrotation Yrotation 
			JOINT Chest
			{
				OFFSET 8.98455 -0.406207 0.0
				CHANNELS 6 Xposition Yposition Zposition Zrotation Xrotation Yrotation 
				JOINT Neck
				{
					OFFSET 16.3773 0.0 0.0
					CHANNELS 6 Xposition Yposition Zposition Zrotation Xrotation Yrotation 
					JOINT Head
					{
						OFFSET 6.45672 0.0 0.0
						CHANNELS 6 Xposition Yposition Zposition Zrotation Xrotation Yrotation 
						End Site
						{
							OFFSET 0.0 0.0 0.0
						}
					}
				}
				JOINT Shoulder_L
				{
					OFFSET 12.9942 -0.242716 4.98039
					CHANNELS 6 Xposition Yposition Zposition Zrotation Xrotation Yrotation 
					JOINT UpperArm_L
					{
						OFFSET 5.34809 0.0 0.0
						CHANNELS 6 Xposition Yposition Zposition Zrotation Xrotation Yrotation 
						JOINT LowerArm_L
						{
							OFFSET 24.3286 1.87007e-05 0.0
							CHANNELS 6 Xposition Yposition Zposition Zrotation Xrotation Yrotation 
							JOINT Hand_L
							{
								OFFSET 22.2916 0.0 0.0
								CHANNELS 6 Xposition Yposition Zposition Zrotation Xrotation Yrotation 
								End Site
								{
									OFFSET 0.0 0.0 0.0
								}
							}
						}
					}
				}
				JOINT Shoulder_R
				{
					OFFSET 12.9945 -0.242716 -4.98039
					CHANNELS 6 Xposition Yposition Zposition Zrotation Xrotation Yrotation 
					JOINT UpperArm_R
					{
						OFFSET -5.34813 0.0 0.0
						CHANNELS 6 Xposition Yposition Zposition Zrotation Xrotation Yrotation 
						JOINT LowerArm_R
						{
							OFFSET -24.3289 0.000322201 0.0
							CHANNELS 6 Xposition Yposition Zposition Zrotation Xrotation Yrotation 
							JOINT Hand_R
							{
								OFFSET -22.2915 -0.000108084 0.0
								CHANNELS 6 Xposition Yposition Zposition Zrotation Xrotation Yrotation 
								End Site
								{
									OFFSET 0.0 0.0 0.0
								}
							}
						}
					}
				}
			}
		}
		JOINT UpperLeg_L
		{
			OFFSET -2.19248 -6.46944 0.0
			CHANNELS 6 Xposition Yposition Zposition Zrotation Xrotation Yrotation 
			JOINT LowerLeg_L
			{
				OFFSET 39.0811 0.0 -1.23785e-05
				CHANNELS 6 Xposition Yposition Zposition Zrotation Xrotation Yrotation 
				JOINT Foot_L
				{
					OFFSET 40.9854 0.0 -1.26872e-05
					CHANNELS 6 Xposition Yposition Zposition Zrotation Xrotation Yrotation 
					JOINT Toes_L
					{
						OFFSET 11.7543 0.0 0.0
						CHANNELS 6 Xposition Yposition Zposition Zrotation Xrotation Yrotation 
						End Site
						{
							OFFSET 0.0 0.0 0.0
						}
					}
				}
			}
		}
		JOINT UpperLeg_R
		{
			OFFSET -2.19251 6.46944 0.0
			CHANNELS 6 Xposition Yposition Zposition Zrotation Xrotation Yrotation 
			JOINT LowerLeg_R
			{
				OFFSET -39.0811 -0.00228153 -0.0401928
				CHANNELS 6 Xposition Yposition Zposition Zrotation Xrotation Yrotation 
				JOINT Foot_R
				{
					OFFSET -40.9854 0.0 0.0
					CHANNELS 6 Xposition Yposition Zposition Zrotation Xrotation Yrotation 
					JOINT Toes_R
					{
						OFFSET -11.7543 0.0 0.0
						CHANNELS 6 Xposition Yposition Zposition Zrotation Xrotation Yrotation 
						End Site
						{
							OFFSET 0.0 0.0 0.0
						}
					}
				}
			}
		}
	}
}
MOTION
Frames:	6
Frame Time:	0.0333333
0.000000 0.000000 0.000000 0.000000 0.000000 -0.000000 -3.993100 91.664400 -0.978606 84.066100 0.467415 7.070370 15.735700 0.000005 -0.000001 68.665900 86.374400 -66.470300 8.984550 -0.406207 -0.000000 -0.954231 -2.804470 4.366730 16.377300 -0.000001 -0.000001 9.188900 2.900820 5.962600 6.456720 -0.000001 -0.000000 -9.896350 1.759090 17.738600 12.994200 -0.242716 4.980390 -92.997500 8.485940 -70.462900 5.348090 -0.000007 -0.000001 -71.854800 28.374400 1.288980 24.328600 0.000019 0.000005 10.927100 26.904400 -23.105500 22.291600 -0.000001 0.000005 -2.589110 4.988490 7.563320 12.994500 -0.242716 -4.980390 86.356100 8.669250 -67.096000 -5.348130 -0.000001 -0.000004 -68.849300 -6.923720 -13.115200 -24.328900 0.000322 -0.000009 7.047510 -8.585010 -140.368000 -22.291500 -0.000108 -0.000004 45.446300 5.671600 -17.639000 -2.192480 -6.469440 -0.000000 -172.332000 6.209460 -1.832840 39.081100 -0.000007 -0.000012 0.405741 -0.711468 29.696500 40.985400 -0.000006 -0.000013 -0.982099 3.125870 -76.843500 11.754300 -0.000000 0.000003 0.000005 0.167536 -9.781650 -2.192510 6.469440 -0.000001 -170.144000 9.703480 -174.336000 -39.081100 -0.002282 -0.040193 0.150202 -0.485965 16.816900 -40.985400 0.000008 0.000006 6.404430 3.071460 -72.072300 -11.754300 -0.000006 -0.000006 -0.011456 0.281883 -5.118100
0.000000 0.000000 0.000000 0.000000 0.000000 -0.000000 -4.008070 91.662500 -1.011210 84.111300 0.525758 7.066390 15.735700 0.000005 -0.000001 69.047100 86.375500 -66.871600 8.984550 -0.406207 -0.000000 -0.940370 -2.756890 4.327230 16.377300 -0.000001 -0.000001 9.223590 2.882700 5.838420 6.456720 -0.000001 -0.000000 -9.745970 1.715950 17.513600 12.994200 -0.242716 4.980390 -92.999800 8.494050 -70.466100 5.348090 -0.000007 -0.000001 -71.911100 28.343800 1.253700 24.328600 0.000019 0.000005 10.967400 27.038700 -23.088100 22.291600 -0.000001 0.000005 -2.580520 4.990940 7.511480 12.994500 -0.242716 -4.980390 86.368800 8.662550 -67.152200 -5.348130 -0.000001 -0.000004 -68.863100 -6.812150 -13.035600 -24.328900 0.000322 -0.000009 7.073740 -8.585040 -140.262000 -22.291500 -0.000108 -0.000004 45.425800 5.671630 -17.643500 -2.192480 -6.469440 -0.000000 -172.355000 6.225860 -1.880840 39.081100 -0.000007 -0.000012 0.401524 -0.704270 29.689700 40.985400 -0.000006 -0.000013 -0.983093 3.179280 -76.734100 11.754300 -0.000000 0.000003 0.000138 0.165272 -9.873600 -2.192510 6.469440 -0.000001 -170.153000 9.710520 -174.384000 -39.081100 -0.002282 -0.040193 0.153388 -0.495625 16.845100 -40.985400 0.000008 0.000006 6.492880 2.976660 -72.067100 -11.754300 -0.000006 -0.000006 -0.011275 0.280598 -5.170720
0.000000 0.000000 0.000000 0.000000 0.000000 -0.000000 -4.015250 91.673300 -1.048130 84.116000 0.626222 7.049340 15.735700 0.000005 -0.000001 69.189400 86.374000 -67.018000 8.984550 -0.406207 -0.000000 -0.931531 -2.740670 4.319320 16.377300 -0.000001 -0.000001 9.251480 2.836560 5.759750 6.456720 -0.000001 -0.000000 -9.545100 1.685930 17.328700 12.994200 -0.242716 4.980390 -93.014800 8.515380 -70.420500 5.348090 -0.000007 -0.000001 -71.970000 28.410500 1.236340 24.328600 0.000019 0.000005 10.942500 26.920600 -23.123700 22.291600 -0.000001 0.000005 -2.546260 4.991490 7.499980 12.994500 -0.242716 -4.980390 86.375200 8.652610 -67.165000 -5.348130 -0.000001 -0.000004 -68.920100 -6.736650 -12.988800 -24.328900 0.000322 -0.000009 6.896760 -8.340230 -140.174000 -22.291500 -0.000108 -0.000004 45.108900 5.671730 -17.661800 -2.192480 -6.469440 -0.000000 -172.350000 6.279130 -1.934970 39.081100 -0.000007 -0.000012 0.400965 -0.704049 29.663000 40.985400 -0.000006 -0.000013 -0.987240 3.211660 -76.715900 11.754300 -0.000000 0.000003 0.000114 0.165684 -9.856840 -2.192510 6.469440 -0.000001 -170.151000 9.771980 -174.433000 -39.081100 -0.002282 -0.040193 0.151372 -0.489694 16.821400 -40.985400 0.000008 0.000006 6.411870 2.938840 -72.029500 -11.754300 -0.000006 -0.000006 -0.011104 0.279375 -5.220800
0.000000 0.000000 0.000000 0.000000 0.000000 -0.000000 -4.021790 91.669700 -1.072520 84.110200 0.701994 7.073420 15.735700 0.000005 -0.000001 69.476900 86.357000 -67.303400 8.984550 -0.406207 -0.000000 -0.887098 -2.717900 4.324610 16.377300 -0.000001 -0.000001 9.333070 2.807060 5.672190 6.456720 -0.000001 -0.000000 -9.418290 1.570960 17.224800 12.994200 -0.242716 4.980390 -93.027600 8.547970 -70.412800 5.348090 -0.000007 -0.000001 -72.067300 28.424400 1.273850 24.328600 0.000019 0.000005 10.967900 26.880500 -23.201500 22.291600 -0.000001 0.000005 -2.467800 4.988690 7.558930 12.994500 -0.242716 -4.980390 86.393800 8.617040 -67.186600 -5.348130 -0.000001 -0.000004 -68.887100 -6.546090 -12.949100 -24.328900 0.000322 -0.000009 6.933140 -8.332960 -140.000000 -22.291500 -0.000108 -0.000004 45.118400 5.670630 -17.480200 -2.192480 -6.469440 -0.000000 -172.345000 6.324100 -1.962220 39.081100 -0.000007 -0.000012 0.402841 -0.706147 29.704800 40.985400 -0.000006 -0.000013 -0.980184 3.252780 -76.730800 11.754300 -0.000000 0.000003 0.000020 0.167284 -9.791870 -2.192510 6.469440 -0.000001 -170.137000 9.787230 -174.421000 -39.081100 -0.002282 -0.040193 0.152260 -0.492841 16.814700 -40.985400 0.000008 0.000006 6.491590 2.892800 -72.033900 -11.754300 -0.000006 -0.000006 -0.010988 0.278544 -5.254810
0.000000 0.000000 0.000000 0.000000 0.000000 -0.000000 -4.024860 91.670800 -1.076910 84.114200 0.737475 7.103970 15.735700 0.000005 -0.000001 70.040300 86.340100 -67.870100 8.984550 -0.406207 -0.000000 -0.831780 -2.660890 4.319670 16.377300 -0.000001 -0.000001 9.460580 2.710750 5.651680 6.456720 -0.000001 -0.000000 -9.335580 1.399750 17.128000 12.994200 -0.242716 4.980390 -93.035200 8.560260 -70.392700 5.348090 -0.000007 -0.000001 -72.153400 28.383100 1.285240 24.328600 0.000019 0.000005 10.994600 26.870000 -23.260700 22.291600 -0.000001 0.000005 -2.613690 4.988350 7.566290 12.994500 -0.242716 -4.980390 86.401700 8.596070 -67.182400 -5.348130 -0.000001 -0.000004 -68.853100 -6.392870 -12.963900 -24.328900 0.000322 -0.000009 7.013360 -8.378660 -139.825000 -22.291500 -0.000108 -0.000004 45.061400 5.669000 -17.233000 -2.192480 -6.469440 -0.000000 -172.341000 6.311480 -1.951840 39.081100 -0.000007 -0.000012 0.404229 -0.708648 29.702400 40.985400 -0.000006 -0.000013 -0.986222 3.263570 -76.691300 11.754300 -0.000000 0.000003 0.000109 0.165778 -9.853060 -2.192510 6.469440 -0.000001 -170.122000 9.724130 -174.417000 -39.081100 -0.002282 -0.040193 0.151213 -0.488946 16.828600 -40.985400 0.000008 0.000006 6.417020 2.777260 -71.974300 -11.754300 -0.000006 -0.000006 -0.010620 0.275883 -5.363690
0.000000 0.000000 0.000000 0.000000 0.000000 -0.000000 -4.034600 91.666800 -1.096190 84.120300 0.817006 7.121120 15.735700 0.000005 -0.000001 70.282600 86.330300 -68.117600 8.984550 -0.406207 -0.000000 -0.803397 -2.637470 4.310270 16.377300 -0.000001 -0.000001 9.618810 2.631680 5.690430 6.456720 -0.000001 -0.000000 -9.281390 1.248060 17.024500 12.994200 -0.242716 4.980390 -93.037100 8.559550 -70.380000 5.348090 -0.000007 -0.000001 -72.259100 28.376100 1.308740 24.328600 0.000019 0.000005 10.945100 26.832900 -23.191300 22.291600 -0.000001 0.000005 -2.518830 4.989770 7.536160 12.994500 -0.242716 -4.980390 86.413400 8.566070 -67.178000 -5.348130 -0.000001 -0.000004 -68.757300 -6.241180 -12.950800 -24.328900 0.000322 -0.000009 7.009080 -8.319740 -139.645000 -22.291500 -0.000108 -0.000004 44.864800 5.668170 -17.106700 -2.192480 -6.469440 -0.000000 -172.343000 6.354290 -1.972020 39.081100 -0.000007 -0.000012 0.404863 -0.708943 29.730800 40.985400 -0.000006 -0.000013 -0.977416 3.318590 -76.705300 11.754300 -0.000000 0.000003 0.000120 0.165583 -9.860950 -2.192510 6.469440 -0.000001 -170.110000 9.722080 -174.434000 -39.081100 -0.002282 -0.040193 0.154332 -0.498159 16.863700 -40.985400 0.000008 0.000006 6.477580 2.725990 -72.049100 -11.754300 -0.000006 -0.000006 -0.011385 0.281378 -5.138790
